Coordinates
version=1
nRows=49
nColumns=12
inDegrees=yes

Units are S.I. units (second, meters, Newtons, ...)
Angles are in degrees

endheader
time	SC_y	SC_z	SC_x	AC_y	AC_z	AC_x	GH_y	GH_z	GH_yy	EL_x	PS_y
       0.0              -38.12           17.4          30.04          41.77         -18.97          6.291         -23.38           15.6          109.6          119.1          33.56
   0.02678              -38.12           17.4          30.05          41.77         -18.96          6.288         -23.38           15.6          109.6          119.1          33.56
   0.05356              -38.12          17.41          30.05          41.77         -18.96          6.284         -23.39          15.61          109.5          119.1          33.56
   0.08034              -38.12          17.41          30.05          41.77         -18.96          6.281         -23.39          15.62          109.5          119.1          33.56
    0.1071              -38.12          17.41          30.05          41.77         -18.95          6.277         -23.39          15.63          109.4          119.1          33.55
    0.1339              -38.12          17.42          30.06          41.76         -18.95          6.272         -23.39          15.63          109.4          119.1          33.55
    0.1607              -38.11          17.42          30.06          41.76         -18.95          6.268         -23.39          15.64          109.3          119.1          33.55
    0.1875              -38.11          17.42          30.06          41.76         -18.94          6.263          -23.4          15.65          109.3          119.1          33.55
    0.2142              -38.11          17.43          30.06          41.76         -18.94          6.258          -23.4          15.66          109.2          119.1          33.54
     0.241              -38.11          17.43          30.07          41.76         -18.93          6.252          -23.4          15.67          109.1          119.1          33.54
    0.2678              -38.11          17.44          30.07          41.75         -18.93          6.247         -23.41          15.68          109.1          119.1          33.54
    0.2946              -38.11          17.44          30.07          41.75         -18.92           6.24         -23.41           15.7          109.0          119.1          33.53
    0.3213              -38.11          17.45          30.08          41.75         -18.91          6.233         -23.42          15.71          108.9          119.1          33.53
    0.3481              -38.11          17.45          30.08          41.74         -18.91          6.226         -23.42          15.72          108.8          119.0          33.52
    0.3749               -38.1          17.46          30.09          41.74          -18.9          6.218         -23.42          15.74          108.7          119.0          33.52
    0.4017               -38.1          17.47          30.09          41.73         -18.89          6.209         -23.43          15.75          108.6          119.0          33.51
    0.4285               -38.1          17.47           30.1          41.73         -18.88          6.199         -23.44          15.77          108.5          119.0           33.5
    0.4552               -38.1          17.48          30.11          41.73         -18.87          6.189         -23.44          15.79          108.4          119.0           33.5
     0.482              -38.09          17.49          30.11          41.72         -18.86          6.178         -23.45          15.81          108.2          119.0          33.49
    0.5088              -38.09           17.5          30.12          41.71         -18.85          6.165         -23.46          15.84          108.1          119.0          33.48
    0.5356              -38.09          17.51          30.13          41.71         -18.84          6.152         -23.46          15.86          107.9          119.0          33.47
    0.5624              -38.09          17.52          30.14           41.7         -18.83          6.137         -23.47          15.89          107.7          118.9          33.46
    0.5891              -38.08          17.54          30.15          41.69         -18.81           6.12         -23.48          15.92          107.5          118.9          33.45
    0.6159              -38.08          17.55          30.16          41.68         -18.79          6.102         -23.49          15.96          107.3          118.9          33.44
    0.6427              -38.07          17.57          30.17          41.67         -18.77          6.082          -23.5          15.99          107.1          118.9          33.43
    0.6695              -38.07          17.58          30.19          41.66         -18.75          6.059         -23.52          16.04          106.8          118.8          33.41
    0.6962              -38.06           17.6           30.2          41.65         -18.73          6.033         -23.53          16.09          106.5          118.8          33.39
     0.723              -38.06          17.63          30.22          41.64          -18.7          6.005         -23.55          16.14          106.2          118.8          33.38
    0.7498              -38.05          17.65          30.24          41.62         -18.67          5.972         -23.57           16.2          105.8          118.7          33.35
    0.7766              -38.04          17.68          30.26          41.61         -18.64          5.936         -23.59          16.27          105.3          118.7          33.33
    0.8034              -38.03          17.72          30.29          41.59          -18.6          5.894         -23.61          16.35          104.8          118.7           33.3
    0.8301              -38.02          17.75          30.32          41.56         -18.56          5.846         -23.64          16.44          104.2          118.6          33.27
    0.8569              -38.01           17.8          30.35          41.54         -18.51           5.79         -23.68          16.55          103.6          118.5          33.23
    0.8837              -37.99          17.85          30.39          41.51         -18.45          5.725         -23.71          16.67          102.8          118.5          33.19
    0.9105              -37.98          17.91          30.43          41.47         -18.38           5.65         -23.76          16.81          101.9          118.4          33.14
    0.9373              -37.96          17.98          30.49          41.43         -18.29          5.561         -23.81          16.98          100.8          118.3          33.08
     0.964              -37.93          18.06          30.55          41.38          -18.2          5.455         -23.87          17.18          99.54          118.1          33.01
    0.9908               -37.9          18.16          30.63          41.32         -18.08          5.328         -23.95          17.42          98.02          118.0          32.93
     1.018              -37.87          18.28          30.72          41.25         -17.94          5.175         -24.04          17.71          96.17          117.8          32.83
     1.044              -37.83          18.43          30.84          41.16         -17.77          4.987         -24.15          18.06          93.92          117.6          32.71
     1.071              -37.77          18.62          30.98          41.05         -17.55          4.756         -24.28           18.5          91.14          117.3          32.55
     1.098              -37.71          18.84          31.16          40.91         -17.29          4.467         -24.45          19.04          87.67          117.0          32.36
     1.125              -37.63          19.13          31.38          40.74         -16.95          4.104         -24.67          19.73           83.3          116.5          32.13
     1.151              -37.52           19.5          31.66          40.52         -16.53          3.642         -24.94           20.6          77.75          116.0          31.82
     1.178              -37.39          19.97          32.02          40.25         -15.98          3.051         -25.29          21.72          70.64          115.3          31.43
     1.205              -37.22          20.57          32.48          39.89         -15.28          2.292         -25.73          23.15          61.52          114.4          30.93
     1.232               -37.0          21.33          33.08          39.43         -14.39          1.322          -26.3          24.99          49.86          113.2           30.3
     1.259              -36.72           22.3          33.82          38.86         -13.26         0.1035         -27.02          27.29          35.21          111.8          29.49
     1.285              -36.38          23.48          34.73          38.16         -11.89         -1.382         -27.89          30.09          17.36          110.0          28.52
